<?xml version="1.0" encoding="utf-8"?>
<!-- Generator: Adobe Illustrator 18.0.0, SVG Export Plug-In . SVG Version: 6.00 Build 0)  -->
<!DOCTYPE svg PUBLIC "-//W3C//DTD SVG 1.1//EN" "http://www.w3.org/Graphics/SVG/1.1/DTD/svg11.dtd">
<svg version="1.1" id="Camada_1" xmlns="http://www.w3.org/2000/svg" xmlns:xlink="http://www.w3.org/1999/xlink" x="0px" y="0px"
	 viewBox="0 0 141.7 141.7" enable-background="new 0 0 141.7 141.7" xml:space="preserve">
<g>
	<path fill-rule="evenodd" clip-rule="evenodd" fill="#FFFFFF" d="M70.9,1.1c38.6,0,69.8,31.3,69.8,69.8c0,38.6-31.3,69.8-69.8,69.8
		c-38.6,0-69.8-31.3-69.8-69.8C1.1,32.3,32.3,1.1,70.9,1.1L70.9,1.1z"/>
	<path fill-rule="evenodd" clip-rule="evenodd" fill="#4B90B5" d="M81.6,18.5c-20.4,6.7-38.7,10.5-53.4-2.1L27.7,16
		c-2.7,2.1-5.2,4.4-7.5,6.8c0,0.8,0,1.7,0,2.6c0.6,22.7,4.3,40.5,9.9,54.3c1.7-2,3.6-4,6.1-5.8l0.4-0.3c3.9-2.6,8.2-3.5,12.4-2.4
		c4.2,1,8.2,3.8,11.5,8.5l0.4,0.6c4.4,6.5,9.7,11.4,15.6,14.7c6,3.4,12.7,5.1,19.4,5.1c9.5,0,16.3-1.6,21.1-3.8
		c0.6-0.3,1.2-0.5,1.7-0.8c2.3-4,4-8.4,4.8-13.1c1.8-10.3-3.7-18.1-16.3-11.8c-8.8,4.4-17.3,7.5-20.9-1.9
		c-2.9-7.4-1.3-18.5,4.6-27.4c2.9-4.2,6-6.7,7.9-11.4C104.4,16.7,94.7,14.2,81.6,18.5L81.6,18.5z"/>
	<path fill-rule="evenodd" clip-rule="evenodd" fill="#4B90B5" d="M70.7,114.1h5.6v13.3c12.7,0.3,22.3,3,27,5.4
		c-1.9,1-3.9,1.9-6,2.8c-17.2-2.3-34.5-2.2-51.6,0.5h0c-1.4-0.5-2.8-1.2-4.2-1.8c2.9-2.5,13.4-6.4,29.2-6.9V114.1L70.7,114.1z"/>
	<path fill-rule="evenodd" clip-rule="evenodd" fill="#295167" d="M31.6,82.9c21,46,65.2,41.4,83.9,17.4c-4.9,1.8-11.3,2.9-19.5,2.9
		c-7.3,0-14.4-1.8-20.9-5.5c-6.2-3.5-11.9-8.7-16.6-15.6l-0.4-0.5c-2.9-4-6.3-6.4-9.7-7.3c-3.4-0.8-6.8-0.2-9.9,2l-0.3,0.2
		c-2.6,1.9-4.5,4.1-6.4,6.3L31.6,82.9L31.6,82.9z"/>
</g>
</svg>
